<svg width="93" height="24" viewBox="0 0 93 24" fill="none" xmlns="http://www.w3.org/2000/svg">
<path d="M10.2727 23.2727H2.02273V-2.28882e-05H10.3409C12.6818 -2.28882e-05 14.697 0.465886 16.3864 1.39771C18.0758 2.32195 19.375 3.65149 20.2841 5.38634C21.2008 7.12119 21.6591 9.19695 21.6591 11.6136C21.6591 14.0379 21.2008 16.1212 20.2841 17.8636C19.375 19.606 18.0682 20.9432 16.3636 21.875C14.6667 22.8068 12.6364 23.2727 10.2727 23.2727ZM6.94318 19.0568H10.0682C11.5227 19.0568 12.7462 18.7992 13.7386 18.2841C14.7386 17.7613 15.4886 16.9545 15.9886 15.8636C16.4962 14.7651 16.75 13.3485 16.75 11.6136C16.75 9.89392 16.4962 8.48861 15.9886 7.39771C15.4886 6.3068 14.7424 5.50377 13.75 4.98861C12.7576 4.47346 11.5341 4.21589 10.0795 4.21589H6.94318V19.0568ZM33.0994 23.6136C31.3343 23.6136 29.8078 23.2386 28.5199 22.4886C27.2396 21.731 26.2509 20.678 25.554 19.3295C24.857 17.9735 24.5085 16.4015 24.5085 14.6136C24.5085 12.8106 24.857 11.2348 25.554 9.88634C26.2509 8.53028 27.2396 7.47725 28.5199 6.72725C29.8078 5.96967 31.3343 5.59089 33.0994 5.59089C34.8646 5.59089 36.3873 5.96967 37.6676 6.72725C38.9555 7.47725 39.9479 8.53028 40.6449 9.88634C41.3419 11.2348 41.6903 12.8106 41.6903 14.6136C41.6903 16.4015 41.3419 17.9735 40.6449 19.3295C39.9479 20.678 38.9555 21.731 37.6676 22.4886C36.3873 23.2386 34.8646 23.6136 33.0994 23.6136ZM33.1222 19.8636C33.9252 19.8636 34.5956 19.6363 35.1335 19.1818C35.6714 18.7197 36.0767 18.0909 36.3494 17.2954C36.6297 16.5 36.7699 15.5947 36.7699 14.5795C36.7699 13.5644 36.6297 12.6591 36.3494 11.8636C36.0767 11.0682 35.6714 10.4394 35.1335 9.97725C34.5956 9.51513 33.9252 9.28407 33.1222 9.28407C32.3116 9.28407 31.6297 9.51513 31.0767 9.97725C30.5313 10.4394 30.1184 11.0682 29.8381 11.8636C29.5653 12.6591 29.429 13.5644 29.429 14.5795C29.429 15.5947 29.5653 16.5 29.8381 17.2954C30.1184 18.0909 30.5313 18.7197 31.0767 19.1818C31.6297 19.6363 32.3116 19.8636 33.1222 19.8636ZM49.679 13.1818V23.2727H44.8381V5.81816H49.4517V8.89771H49.6562C50.0426 7.88255 50.6903 7.07952 51.5994 6.48861C52.5085 5.89013 53.6108 5.59089 54.9062 5.59089C56.1184 5.59089 57.1752 5.85604 58.0767 6.38634C58.9782 6.91664 59.679 7.67422 60.179 8.65907C60.679 9.63634 60.929 10.803 60.929 12.1591V23.2727H56.0881V13.0227C56.0956 11.9545 55.8229 11.1212 55.2699 10.5227C54.7169 9.91664 53.9555 9.61361 52.9858 9.61361C52.3343 9.61361 51.7585 9.75377 51.2585 10.0341C50.7661 10.3144 50.3797 10.7235 50.0994 11.2613C49.8267 11.7916 49.6866 12.4318 49.679 13.1818ZM72.6989 23.6136C70.9034 23.6136 69.358 23.25 68.0625 22.5227C66.7746 21.7879 65.7822 20.75 65.0852 19.4091C64.3883 18.0606 64.0398 16.4659 64.0398 14.625C64.0398 12.8295 64.3883 11.2538 65.0852 9.89771C65.7822 8.54164 66.7633 7.48483 68.0284 6.72725C69.3011 5.96967 70.7936 5.59089 72.5057 5.59089C73.6572 5.59089 74.7292 5.77649 75.7216 6.14771C76.7216 6.51134 77.5928 7.06058 78.3352 7.79543C79.0852 8.53028 79.6686 9.45452 80.0852 10.5682C80.5019 11.6742 80.7102 12.9697 80.7102 14.4545V15.7841H65.9716V12.7841H76.1534C76.1534 12.0871 76.0019 11.4697 75.6989 10.9318C75.3958 10.3939 74.9754 9.97346 74.4375 9.67043C73.9072 9.35983 73.2898 9.20452 72.5852 9.20452C71.8504 9.20452 71.1989 9.37498 70.6307 9.71589C70.0701 10.0492 69.6307 10.5 69.3125 11.0682C68.9943 11.6288 68.8314 12.2538 68.8239 12.9432V15.7954C68.8239 16.6591 68.983 17.4053 69.3011 18.0341C69.6269 18.6629 70.0852 19.1477 70.6761 19.4886C71.267 19.8295 71.9678 20 72.7784 20C73.3163 20 73.8087 19.9242 74.2557 19.7727C74.7027 19.6212 75.0852 19.3939 75.4034 19.0909C75.7216 18.7879 75.964 18.4166 76.1307 17.9773L80.608 18.2727C80.3807 19.3485 79.9148 20.2879 79.2102 21.0909C78.5133 21.8863 77.6117 22.5076 76.5057 22.9545C75.4072 23.3939 74.1383 23.6136 72.6989 23.6136ZM89.6534 -2.28882e-05L89.2102 16.2954H85.0511L84.5966 -2.28882e-05H89.6534ZM87.1307 23.5682C86.3807 23.5682 85.7367 23.303 85.1989 22.7727C84.661 22.2348 84.3958 21.5909 84.4034 20.8409C84.3958 20.0985 84.661 19.4621 85.1989 18.9318C85.7367 18.4015 86.3807 18.1363 87.1307 18.1363C87.8504 18.1363 88.483 18.4015 89.0284 18.9318C89.5739 19.4621 89.8504 20.0985 89.858 20.8409C89.8504 21.3409 89.7178 21.7992 89.4602 22.2159C89.2102 22.625 88.8807 22.9545 88.4716 23.2045C88.0625 23.4469 87.6155 23.5682 87.1307 23.5682Z" fill="#1E1E1E"/>
<path d="M0 12.7954H42.9176V14.9772H0V12.7954ZM42.9062 12.7954H92.3239V14.9772H42.9062V12.7954Z" fill="#1E1E1E"/>
</svg>
